HIERARCHY
ROOT SpineBase
{
  OFFSET 0.000000 0.000000 0.000000
  CHANNELS 6 Xposition Yposition Zposition Zrotation Xrotation Yrotation
  JOINT SpineMid
  {
    OFFSET 0.000000 22.084623 0.000000
    CHANNELS 3 Zrotation Xrotation Yrotation
    JOINT SpineShoulder
    {
      OFFSET 0.042852 16.337817 -0.611273
      CHANNELS 3 Zrotation Xrotation Yrotation
      JOINT Neck
      {
        OFFSET 0.051273 5.376365 -0.436016
        CHANNELS 3 Zrotation Xrotation Yrotation
        JOINT Head
        {
          OFFSET 1.577445 9.795092 3.475343
          CHANNELS 3 Zrotation Xrotation Yrotation
          End Site
          {
            OFFSET 0 0 0
          }
        }
      }
      JOINT ShoulderLeft
      {
        OFFSET -2.138052 -5.044989 -11.834537
        CHANNELS 3 Zrotation Xrotation Yrotation
        JOINT ElbowLeft
        {
          OFFSET -0.689508 -19.798927 -4.413163
          CHANNELS 3 Zrotation Xrotation Yrotation
          JOINT WristLeft
          {
            OFFSET 4.271591 -20.728730 2.015945
            CHANNELS 3 Zrotation Xrotation Yrotation
            JOINT HandLeft
            {
              OFFSET 0.341316 -4.033761 0.875593
              CHANNELS 3 Zrotation Xrotation Yrotation
              JOINT HandTipLeft
              {
                OFFSET 1.362061 -5.810370 -0.616734
                CHANNELS 3 Zrotation Xrotation Yrotation
                End Site
                {
                  OFFSET 0 0 0
                }
              }
              JOINT ThumbLeft
              {
                OFFSET 2.197431 -1.162875 -1.101844
                CHANNELS 3 Zrotation Xrotation Yrotation
                End Site
                {
                  OFFSET 0 0 0
                }
              }
            }
          }
        }
      }
      JOINT ShoulderRight
      {
        OFFSET 3.416114 -3.944169 8.908063
        CHANNELS 3 Zrotation Xrotation Yrotation
        JOINT ElbowRight
        {
          OFFSET -3.275614 -15.819681 -22.891144
          CHANNELS 3 Zrotation Xrotation Yrotation
          JOINT WristRight
          {
            OFFSET -2.402459 -19.736140 -2.611072
            CHANNELS 3 Zrotation Xrotation Yrotation
            JOINT HandRight
            {
              OFFSET 1.427282 -4.153522 2.033964
              CHANNELS 3 Zrotation Xrotation Yrotation
              JOINT HandTipRight
              {
                OFFSET 0.245812 -3.953582 -0.270420
                CHANNELS 3 Zrotation Xrotation Yrotation
                End Site
                {
                  OFFSET 0 0 0
                }
              }
              JOINT ThumbRight
              {
                OFFSET -1.583168 0.501604 -0.464167
                CHANNELS 3 Zrotation Xrotation Yrotation
                End Site
                {
                  OFFSET 0 0 0
                }
              }
            }
          }
        }
      }
    }
  }
  JOINT HipLeft
  {
    OFFSET -0.430938 0.010531 -7.882550
    CHANNELS 3 Zrotation Xrotation Yrotation
    JOINT KneeLeft
    {
      OFFSET -6.705137 -41.333433 6.065922
      CHANNELS 3 Zrotation Xrotation Yrotation
      JOINT AnkleLeft
      {
        OFFSET -6.900692 -36.825656 3.788685
        CHANNELS 3 Zrotation Xrotation Yrotation
        JOINT FootLeft
        {
          OFFSET 2.556069 -6.658477 -1.531323
          CHANNELS 3 Zrotation Xrotation Yrotation
          End Site
          {
            OFFSET 0 0 0
          }
        }
      }
    }
  }
  JOINT HipRight
  {
    OFFSET 1.750930 0.702710 2.401086
    CHANNELS 3 Zrotation Xrotation Yrotation
    JOINT KneeRight
    {
      OFFSET -19.713214 -22.475611 -12.373683
      CHANNELS 3 Zrotation Xrotation Yrotation
      JOINT AnkleRight
      {
        OFFSET -1.585002 -33.454994 3.388509
        CHANNELS 3 Zrotation Xrotation Yrotation
        JOINT FootRight
        {
          OFFSET 8.242200 -3.619570 -4.189398
          CHANNELS 3 Zrotation Xrotation Yrotation
          End Site
          {
            OFFSET 0 0 0
          }
        }
      }
    }
  }
}
MOTION
Frames: 13
Frame Time: 0.033333
-86.294553 84.844059 336.390363 0.000000 0.000000 -78.021250 0.000000 -0.000000 78.021250 -0.000000 0.000000 0.000000 -0.000000 0.000000 0.000000 0.000000 0.000000 0.000000 -0.000000 0.000000 0.000000 -0.000000 0.000000 0.000000 -0.000000 0.000000 0.000000 -0.000000 0.000000 0.000000 0.000000 0.000000 0.000000 0.000000 0.000000 0.000000 -0.000000 0.000000 0.000000 -0.000000 0.000000 0.000000 -0.000000 0.000000 0.000000 -0.000000 0.000000 0.000000 0.000000 0.000000 0.000000 0.000000 0.000000 0.000000 0.000000 -0.000000 78.021250 -0.000000 0.000000 0.000000 -0.000000 0.000000 0.000000 0.000000 0.000000 0.000000 0.000000 -0.000000 78.021250 -0.000000 0.000000 0.000000 -0.000000 0.000000 0.000000 0.000000 0.000000 0.000000
-86.367114 84.717432 336.411293 -0.094988 -0.055237 -78.206749 -0.034657 0.104272 78.206735 -0.000000 0.000000 0.000000 -0.000000 0.000000 0.000000 0.000000 0.000000 0.000000 -0.000000 0.000000 0.000000 -0.000000 0.000000 0.000000 -0.726434 -0.567707 -0.209209 0.786819 -0.434922 -0.040217 0.000000 0.000000 0.000000 0.000000 0.000000 0.000000 -0.000000 0.000000 0.000000 -0.000000 0.000000 0.000000 -0.000000 0.000000 0.000000 2.135713 1.092563 -0.098353 0.000000 0.000000 0.000000 0.000000 0.000000 0.000000 -0.034657 0.104272 78.206735 -0.000000 0.000000 0.000000 3.147894 -2.556545 -1.626533 0.000000 0.000000 0.000000 -1.139074 -0.040097 77.492672 0.380164 -1.046934 0.718155 -0.000000 0.000000 0.000000 0.000000 0.000000 0.000000
-86.428320 84.631306 336.430034 -0.172648 -0.100545 -78.305169 -0.063462 0.189444 78.305123 -0.000000 0.000000 0.000000 -0.000000 0.000000 0.000000 0.000000 0.000000 0.000000 -0.000000 0.000000 0.000000 -0.000000 0.000000 0.000000 -1.236897 -0.999816 -0.363535 1.377147 -0.832629 -0.104890 0.000000 0.000000 0.000000 0.000000 0.000000 0.000000 -0.000000 0.000000 0.000000 -0.000000 0.000000 0.000000 -1.187252 0.537975 -0.393276 5.053322 1.251994 0.224491 0.000000 0.000000 0.000000 0.000000 0.000000 0.000000 -0.063462 0.189444 78.305123 -0.000000 0.000000 0.000000 5.940316 -4.755738 -2.916308 0.000000 0.000000 0.000000 -1.981171 -0.026667 77.046480 0.640725 -1.820415 1.271547 -0.000000 0.000000 0.000000 0.000000 0.000000 0.000000
-86.478172 84.585680 336.446586 -0.233321 -0.136122 -78.324369 -0.086088 0.256041 78.324285 -0.000000 0.000000 0.000000 -0.000000 0.000000 0.000000 0.000000 0.000000 0.000000 -0.000000 0.000000 0.000000 -0.000000 0.000000 0.000000 -1.549197 -1.311136 -0.464348 1.788838 -1.174374 -0.183131 0.000000 0.000000 0.000000 0.000000 0.000000 0.000000 0.020365 0.821797 -0.197733 -0.017531 -0.821862 0.197461 -1.568721 0.939538 -0.436322 6.725954 1.065361 0.224355 0.000000 0.000000 0.000000 0.000000 0.000000 0.000000 -0.086088 0.256041 78.324285 -0.000000 0.000000 0.000000 8.272708 -6.429538 -3.852527 0.000000 0.000000 0.000000 -2.527166 0.037666 76.689387 0.775036 -2.325113 1.656883 -0.000000 0.000000 0.000000 0.000000 0.000000 0.000000
-86.516669 84.580554 336.460950 -0.277242 -0.162106 -78.268136 -0.102347 0.304412 78.268016 -0.000000 0.000000 0.000000 -0.000000 0.000000 0.000000 0.000000 0.000000 0.000000 -0.000000 0.000000 0.000000 -0.000000 0.000000 0.000000 -1.675161 -1.511865 -0.512847 2.033638 -1.447098 -0.267845 0.000000 0.000000 0.000000 0.000000 0.000000 0.000000 0.043205 0.818580 -0.229965 -0.039924 -0.818746 0.229371 -1.823828 1.433758 -0.382094 7.791501 0.284313 0.182355 0.000000 0.000000 0.000000 0.000000 0.000000 0.000000 -0.102347 0.304412 78.268016 -0.000000 0.000000 0.000000 10.065391 -7.449545 -4.441717 0.000000 0.000000 0.000000 -2.777859 0.150249 76.423644 0.778633 -2.564400 1.872417 -0.000000 0.000000 0.000000 0.000000 0.000000 0.000000
-86.543813 84.615928 336.473125 -0.304536 -0.178570 -78.136731 -0.112150 0.334741 78.136584 -0.000000 0.000000 0.000000 0.730509 -0.289255 -0.211170 0.000000 0.000000 0.000000 -0.000000 0.000000 0.000000 -0.000000 0.000000 0.000000 -1.621403 -1.608279 -0.509881 2.117856 -1.642962 -0.355086 0.000000 0.000000 0.000000 0.000000 0.000000 0.000000 -0.000000 0.000000 0.000000 -0.000000 0.000000 0.000000 -1.958586 2.028582 -0.230724 8.226469 -1.114656 0.097761 0.000000 0.000000 0.000000 0.000000 0.000000 0.000000 -0.112150 0.334741 78.136584 -0.000000 0.000000 0.000000 11.262828 -7.735250 -4.701106 0.000000 0.000000 0.000000 -2.733389 0.308788 76.247928 0.649070 -2.539751 1.917767 -0.000000 0.000000 0.000000 0.000000 0.000000 0.000000
-86.510746 84.755276 336.497294 -0.224099 -0.198567 -77.833001 -0.146875 0.260915 77.832947 -0.000000 0.000000 0.000000 0.862602 -0.543910 -0.214995 0.000000 0.000000 0.000000 -0.000000 0.000000 0.000000 -0.000000 0.000000 0.000000 -1.022829 -1.525298 -0.363936 1.156133 -2.636784 -0.655709 0.000000 0.000000 0.000000 0.000000 0.000000 0.000000 -0.000000 0.000000 0.000000 -0.000000 0.000000 0.000000 -1.861844 3.820890 0.474146 6.260096 -6.569981 -0.420280 0.000000 0.000000 0.000000 0.000000 0.000000 0.000000 -0.146875 0.260915 77.832947 -0.000000 0.000000 0.000000 13.072098 -6.794154 -4.705855 0.000000 0.000000 0.000000 -2.369831 0.440286 76.091221 0.360686 -2.200793 1.762258 -0.000000 0.000000 0.000000 0.000000 0.000000 0.000000
-86.435333 84.936925 336.536194 -0.067295 -0.222246 -77.500114 -0.202413 0.113803 77.500185 -0.000000 0.000000 0.000000 1.000741 -0.808291 -0.218699 0.000000 0.000000 0.000000 -0.000000 0.000000 0.000000 -0.000000 0.000000 0.000000 -1.232217 -2.446726 -0.498996 1.777944 -1.783667 -0.611722 0.000000 0.000000 0.000000 0.000000 0.000000 0.000000 0.293827 -0.997714 -0.218894 -0.297681 0.996571 0.224041 -1.375833 4.549374 0.967808 5.063440 -7.586756 -0.905708 0.000000 0.000000 0.000000 0.000000 0.000000 0.000000 -0.202413 0.113803 77.500185 -0.000000 0.000000 0.000000 13.812425 -5.432033 -4.459422 0.000000 0.000000 0.000000 -1.849146 0.543900 75.994519 -0.018620 -1.701841 1.514842 -0.000000 0.000000 0.000000 0.000000 0.000000 0.000000
-86.462454 85.052804 336.545155 -0.123355 -0.181665 -77.308416 -0.150125 0.160254 77.308430 -0.000000 0.000000 0.000000 1.092271 -1.162782 -0.190181 0.000000 0.000000 0.000000 -0.000000 0.000000 0.000000 -0.000000 0.000000 0.000000 -1.068465 -2.526047 -0.467397 1.885487 -2.364187 -0.819620 0.000000 0.000000 0.000000 0.000000 0.000000 0.000000 0.437637 -2.188129 -0.176805 -0.444709 2.186703 0.193650 -1.491115 6.770943 1.745647 6.676551 -9.446783 -1.343242 0.000000 0.000000 0.000000 0.000000 0.000000 0.000000 -0.150125 0.160254 77.308430 -0.000000 0.000000 0.000000 13.359045 -4.209735 -4.059897 0.000000 0.000000 0.000000 -0.635678 0.872993 76.434644 -0.578967 -0.639178 0.874934 -0.000000 0.000000 0.000000 0.000000 0.000000 0.000000
-86.521318 85.117262 336.514787 -0.210481 -0.160173 -76.811526 -0.107926 0.241474 76.811459 -0.000000 0.000000 0.000000 1.095781 -1.385143 -0.153367 0.000000 0.000000 0.000000 -0.000000 0.000000 0.000000 -0.000000 0.000000 0.000000 -0.367272 -0.898377 -0.158393 1.360607 -3.448029 -0.952120 0.000000 0.000000 0.000000 0.000000 0.000000 0.000000 0.239163 -1.000664 -0.138591 -0.241620 1.000073 0.142788 -1.717466 4.853639 0.924486 6.423062 -8.765692 -0.779569 0.000000 0.000000 0.000000 0.000000 0.000000 0.000000 -0.107926 0.241474 76.811459 0.293369 0.782221 -0.118542 12.700147 1.040120 -2.120783 0.000000 0.000000 0.000000 0.470104 1.161351 76.545672 -1.029097 0.348149 0.261838 -0.000000 0.000000 0.000000 0.000000 0.000000 0.000000
-86.576095 85.133148 336.469479 -0.264716 -0.159299 -76.265552 -0.091894 0.294968 76.265421 -0.000000 0.000000 0.000000 1.064351 -1.498334 -0.123173 0.000000 0.000000 0.000000 -0.000000 0.000000 0.000000 -0.000000 0.000000 0.000000 0.018817 -1.124407 -0.090681 1.205460 -2.956530 -0.977685 0.000000 0.000000 0.000000 0.000000 0.000000 0.000000 0.253796 -0.953343 -0.169852 -0.256656 0.952577 0.174097 -1.617896 3.873120 0.606798 6.723689 -5.961054 -0.534571 0.000000 0.000000 0.000000 0.000000 0.000000 0.000000 -0.091894 0.294968 76.265421 0.266946 0.929855 -0.149140 8.320592 -2.156703 -2.022090 0.000000 0.000000 0.000000 1.207462 1.289195 76.448593 -1.270919 1.030237 -0.189709 -0.000000 0.000000 0.000000 0.000000 0.000000 0.000000
-86.629078 85.101881 336.407735 -0.298508 -0.147841 -75.729270 -0.069695 0.325740 75.729083 -0.000000 0.000000 0.000000 0.969098 -1.623022 -0.069167 0.000000 0.000000 0.000000 -0.000000 0.000000 0.000000 -0.000000 0.000000 0.000000 0.372067 -1.510715 -0.042036 1.183588 -1.571324 -0.834955 0.000000 0.000000 0.000000 0.000000 0.000000 0.000000 0.239522 -0.890727 -0.162185 -0.242071 0.890037 0.165927 -1.455164 3.892326 0.689334 5.676642 -7.772881 -0.688102 0.000000 0.000000 0.000000 0.000000 0.000000 0.000000 -0.673844 0.991627 75.687207 -0.256458 0.300481 -0.125814 2.854683 -4.498416 -1.709223 0.000000 0.000000 0.000000 1.592090 1.259177 76.201155 -1.302736 1.391207 -0.479240 -0.000000 0.000000 0.000000 0.000000 0.000000 0.000000
-86.654637 85.047511 336.360206 -0.275997 -0.195495 -75.421529 -0.119730 0.316318 75.421389 -0.000000 0.000000 0.000000 0.909498 -1.703581 -0.035036 0.000000 0.000000 0.000000 -0.000000 0.000000 0.000000 -0.000000 0.000000 0.000000 0.670832 -0.718828 0.088836 1.226304 -0.814158 -0.637991 0.000000 0.000000 0.000000 0.000000 0.000000 0.000000 0.243961 -0.959660 -0.154195 -0.246577 0.958992 0.158302 -1.271116 4.090828 0.847282 6.460184 -6.780573 -0.781887 0.000000 0.000000 0.000000 0.000000 0.000000 0.000000 -0.823223 1.010725 75.363277 -0.281074 0.263862 -0.124376 -4.504367 -15.205319 -5.084100 0.000000 0.000000 0.000000 1.411361 1.131851 75.881925 -1.164270 1.285933 -0.466820 -0.000000 0.000000 0.000000 0.000000 0.000000 0.000000
